<svg xmlns="http://www.w3.org/2000/svg" xmlns:xlink="http://www.w3.org/1999/xlink" id="Layer_1" x="0" y="0" enable-background="new 0 0 512.001 512.001" version="1.1" viewBox="0 0 512.001 512.001" xml:space="preserve"><path fill="#D6DAE6" d="M229.028,243.753C163.151,48.989,102.944-14.327,55.163,14.5s-19.84,111.611,121.74,260.7	L229.028,243.753z"/><path d="M76.177,14.5c3.975-2.399,8.038-4.143,12.18-5.244	C76.741,6.287,65.652,8.171,55.163,14.5c-47.779,28.826-19.84,111.611,121.74,260.7l13.395-8.082	C55.355,123.118,29.269,42.801,76.177,14.5z" enable-background="new" opacity=".1"/><path fill="#FFA0C1" d="M199.313,264.787c-42.016-44.98-73.596-84.397-94.015-117.37	c-8.614-13.909-28.371-48.449-25.778-68.699c0.635-4.957,2.421-7.671,6.827-10.371c3.883-2.38,6.436-2.501,8.227-2.34	c4.438,0.398,20.978,4.853,47.521,45.442c21.99,33.625,44.817,82.919,67.975,146.747L199.313,264.787z"/><path fill="#D6DAE6" d="M282.972,243.753C348.85,48.99,409.056-14.327,456.837,14.5s19.84,111.611-121.74,260.7	L282.972,243.753z"/><path d="M303.986,243.753C355.4,91.747,403.362,19.813,444.656,9.256	C398.998-2.867,343.369,65.192,282.973,243.753l52.124,31.448c2.582-2.718,5.113-5.408,7.618-8.082L303.986,243.753z" enable-background="new" opacity=".1"/><path fill="#FFA0C1" d="M312.687,264.787c42.016-44.98,73.596-84.397,94.015-117.37c8.614-13.91,28.37-48.449,25.777-68.7	c-0.635-4.957-2.421-7.671-6.827-10.371c-3.883-2.38-6.436-2.501-8.227-2.34c-4.438,0.398-20.978,4.853-47.521,45.442	c-21.99,33.625-44.818,82.919-67.975,146.747L312.687,264.787z"/><path fill="#DDE1ED" d="M376.128,310.735c0-66.345-53.783-120.128-120.128-120.128s-120.128,53.783-120.128,120.128	c-61.442,0-92.164,193.386,120.128,193.386S437.57,310.735,376.128,310.735z"/><path d="M167.393,310.735c0-61.002,45.471-111.38,104.367-119.098	c-5.158-0.676-10.417-1.03-15.76-1.03c-66.345,0-120.128,53.783-120.128,120.128c-61.442,0-92.164,193.386,120.128,193.386	c5.413,0,10.659-0.132,15.76-0.377C76.824,494.378,107.517,310.735,167.393,310.735z" enable-background="new" opacity=".1"/><circle cx="191.58" cy="345.356" r="13.785"/><path d="M205.865,408.669c16.895,8.71,30.804,9.767,41.344,3.146c3.412-2.143,6.361-5.081,8.792-8.723	c2.431,3.642,5.382,6.579,8.792,8.723c4.547,2.857,9.722,4.285,15.494,4.285c7.605,0,16.244-2.479,25.85-7.43	c3.869-1.994,5.388-6.746,3.394-10.615c-1.994-3.869-6.746-5.388-10.615-3.394c-7.958,4.102-18.878,8.095-25.713,3.824	c-6.585-4.113-8.725-14.949-9.21-21.609c5.782-1.929,9.754-5.875,9.754-10.443c0-6.466-7.945-11.707-17.745-11.707	c-9.8,0-17.745,5.241-17.745,11.707c0,4.567,3.973,8.513,9.754,10.442c-0.49,6.547-2.632,17.477-9.185,21.594	c-6.834,4.294-17.769,0.299-25.738-3.809c-3.869-1.994-8.621-0.475-10.615,3.394C200.477,401.922,201.997,406.674,205.865,408.669z"/><circle cx="320.424" cy="345.356" r="13.785"/><path d="M128.186,303.649c-11.979,2.504-22.864,10.869-31.215,24.172c-9.306,14.821-14.431,34.161-14.431,54.454	c0,33.625,13.7,64.662,38.575,87.393c30.741,28.09,76.122,42.334,134.884,42.334c56.806,0,101.184-13.357,131.899-39.701	c3.304-2.833,3.685-7.808,0.852-11.112c-2.834-3.303-7.809-3.685-11.111-0.851c-27.779,23.823-68.704,35.902-121.639,35.902	c-54.703,0-96.508-12.855-124.254-38.208c-29.102-26.593-33.446-58.88-33.446-75.758c0-34.507,17.206-63.66,37.572-63.66	c4.352,0,7.88-3.528,7.88-7.88c0.003-61.359,51.211-112.248,112.248-112.248c61.16,0,112.247,51.161,112.247,112.248	c0,4.352,3.528,7.88,7.88,7.88c10.303,0,20.378,7.716,27.641,21.17c12.607,23.352,15.895,64.151-6.676,98.545	c-2.387,3.638-1.374,8.523,2.265,10.911c3.637,2.387,8.524,1.374,10.911-2.265c26.256-40.011,22.619-86.426,7.367-114.678	c-8.49-15.726-20.532-25.816-33.822-28.636c-1.051-19.197-6.357-37.278-14.979-53.323C452.665,157.21,491.942,88.01,485.582,44.613	c-2.343-15.995-10.645-28.398-24.674-36.861C452.382,2.608,443.425,0,434.287,0C389.1,0,342.039,63.451,294.368,188.609	c-12.118-3.816-25.006-5.883-38.368-5.883s-26.25,2.067-38.368,5.883C169.961,63.451,122.9,0,77.713,0	c-9.138,0-18.094,2.608-26.62,7.752c-14.029,8.464-22.33,20.866-24.674,36.862c-6.36,43.396,32.917,112.597,116.745,205.725	C134.544,266.38,129.239,284.456,128.186,303.649z M330.429,206.579c15.673-37.484,31.16-68.017,46.071-90.818	c26.216-40.088,41.013-41.85,41.632-41.906c0.098-0.008,0.203-0.017,0.316-0.017c0.946,0,2.341,0.768,3.088,1.226	c2.512,1.539,2.816,2.209,3.129,4.653c1.857,14.498-11.522,42.334-24.661,63.55c-13.559,21.894-32.347,46.964-55.904,74.603	C339.804,213.795,335.236,210.021,330.429,206.579z M376.91,57.982c20.46-28.016,39.765-42.222,57.377-42.222	c6.227,0,12.444,1.846,18.478,5.487c9.938,5.996,15.572,14.387,17.223,25.652c3.856,26.319-12.34,80.474-109.795,189.475	c-1.687-2.357-3.456-4.65-5.294-6.883c24.63-28.796,44.301-54.99,58.505-77.925c26.209-42.321,28.1-64.435,26.895-73.85	c-0.939-7.333-4.087-12.145-10.527-16.089c-3.897-2.388-7.601-3.549-11.322-3.549c-0.566,0-1.132,0.026-1.727,0.08	c-8.483,0.762-26.704,8.136-53.411,48.977c-15.115,23.113-30.715,53.7-46.425,90.998c-2.553-1.386-5.152-2.69-7.798-3.899	C332.005,134.063,354.808,88.248,376.91,57.982z M42.012,46.899c1.651-11.265,7.284-19.656,17.223-25.652	c6.118-3.692,12.163-5.487,18.478-5.487c17.611,0,36.916,14.207,57.378,42.227c22.103,30.267,44.906,76.08,67.821,136.247	c-2.647,1.21-5.246,2.514-7.799,3.9c-14.353-34.072-28.641-62.602-42.524-84.872c-2.303-3.693-7.163-4.822-10.856-2.518	c-3.693,2.302-4.82,7.162-2.518,10.856c13.76,22.073,27.996,50.639,42.356,84.98c-4.806,3.442-9.374,7.216-13.669,11.294	c-23.557-27.639-42.345-52.709-55.904-74.603c-13.14-21.216-26.518-49.053-24.661-63.551c0.313-2.444,0.617-3.114,3.129-4.653	c2.156-1.321,3.028-1.244,3.406-1.209c0.411,0.037,10.257,1.153,27.941,22.957c2.742,3.38,7.706,3.898,11.084,1.157	c3.38-2.741,3.898-7.705,1.157-11.084c-19.216-23.693-32.54-28.169-38.772-28.726c-4.393-0.395-8.543,0.706-13.05,3.468	c-6.44,3.946-9.587,8.757-10.527,16.089c-2.808,21.935,15.645,55.685,26.894,73.85c14.204,22.935,33.875,49.129,58.505,77.925	c-1.839,2.233-3.607,4.525-5.294,6.882C54.352,127.373,38.155,73.218,42.012,46.899z"/></svg>